<?xml version="1.0" standalone="no"?>
<!DOCTYPE svg PUBLIC "-//W3C//DTD SVG 20010904//EN"
 "http://www.w3.org/TR/2001/REC-SVG-20010904/DTD/svg10.dtd">
<svg version="1.0" xmlns="http://www.w3.org/2000/svg"
 width="334.000000pt" height="98.000000pt" viewBox="0 0 334.000000 98.000000"
 preserveAspectRatio="xMidYMid meet">

<g transform="translate(0.000000,98.000000) scale(0.100000,-0.100000)"
fill="#000000" stroke="none">
<path d="M1002 880 c-40 -17 -46 -88 -9 -112 40 -26 107 9 107 55 0 42 -55 74
-98 57z"/>
<path d="M1200 555 l0 -295 55 0 54 0 3 92 3 92 73 -92 72 -92 72 0 71 0 -19
22 c-10 13 -55 62 -98 111 l-79 88 24 27 c14 15 58 64 98 110 l73 82 -73 0
-74 0 -70 -91 -70 -90 -3 166 -2 165 -55 0 -55 0 0 -295z"/>
<path d="M260 540 l0 -280 55 0 55 0 0 178 0 177 73 -175 73 -175 44 0 44 0
73 175 72 175 1 -177 0 -178 55 0 55 0 0 280 0 281 -62 -3 -61 -3 -86 -202
c-47 -112 -88 -203 -91 -203 -3 0 -44 91 -91 203 l-86 202 -61 3 -62 3 0 -281z"/>
<path d="M1775 697 c-55 -22 -84 -48 -110 -100 -53 -107 -20 -254 71 -314 60
-39 161 -33 221 13 l33 25 0 -30 c0 -31 0 -31 55 -31 l55 0 0 220 0 220 -55 0
c-52 0 -55 -1 -55 -25 0 -26 -14 -33 -26 -14 -12 19 -88 49 -124 48 -19 0 -48
-6 -65 -12z m171 -121 c84 -84 18 -241 -94 -222 -83 13 -126 108 -86 192 20
42 56 63 108 64 30 0 45 -7 72 -34z"/>
<path d="M2292 697 c-52 -16 -92 -69 -92 -122 0 -66 27 -91 140 -129 83 -27
95 -34 98 -55 4 -28 -20 -51 -54 -51 -34 0 -73 20 -79 42 -5 15 -17 18 -61 18
-62 0 -68 -12 -34 -67 59 -98 264 -103 321 -9 23 37 24 77 5 115 -20 38 -49
55 -134 80 -95 29 -119 52 -86 85 32 33 124 7 124 -35 0 -6 21 -9 53 -7 49 3
52 4 49 28 -11 88 -139 143 -250 107z"/>
<path d="M2757 700 c-121 -36 -177 -203 -113 -334 58 -117 200 -148 294 -63
l22 20 0 -31 0 -32 55 0 55 0 0 220 0 220 -55 0 c-53 0 -55 -1 -55 -27 0 -24
-1 -25 -18 -10 -45 41 -122 56 -185 37z m137 -100 c57 -21 85 -125 52 -189
-21 -39 -74 -65 -118 -57 -54 10 -91 55 -95 118 -8 104 68 164 161 128z"/>
<path d="M980 480 l0 -220 55 0 55 0 0 220 0 220 -55 0 -55 0 0 -220z"/>
</g>
</svg>
