<?xml version="1.0" standalone="no"?>
<!DOCTYPE svg PUBLIC "-//W3C//DTD SVG 20010904//EN"
 "http://www.w3.org/TR/2001/REC-SVG-20010904/DTD/svg10.dtd">
<svg version="1.0" xmlns="http://www.w3.org/2000/svg"
 width="334.000000pt" height="118.000000pt" viewBox="0 0 334.000000 118.000000"
 preserveAspectRatio="xMidYMid meet">

<g transform="translate(0.000000,118.000000) scale(0.100000,-0.100000)"
fill="#000000" stroke="none">
<path d="M0 590 l0 -590 1670 0 1670 0 0 590 0 590 -1670 0 -1670 0 0 -590z
m1054 359 c49 -38 24 -109 -38 -109 -37 0 -49 7 -65 37 -20 40 14 89 65 92 6
1 23 -8 38 -20z m236 -185 l0 -167 73 91 72 92 73 0 74 0 -97 -110 -97 -110
84 -93 c126 -139 122 -127 39 -127 l-71 0 -72 91 -73 91 -3 -91 -3 -91 -54 0
-55 0 0 295 0 295 55 0 55 0 0 -166z m-841 -66 c46 -109 87 -198 91 -198 4 0
45 89 91 198 l85 197 62 3 62 3 0 -281 0 -280 -55 0 -55 0 -2 173 -3 172 -70
-172 -70 -173 -45 0 -45 0 -70 172 -70 172 -3 -172 -2 -172 -60 0 -60 0 0 273
c0 151 3 277 7 281 4 4 34 6 67 4 l60 -3 85 -197z m1475 58 l36 -27 0 25 c0
25 2 26 60 26 l60 0 0 -220 0 -220 -60 0 c-57 0 -60 1 -60 25 l0 25 -41 -27
c-32 -21 -52 -26 -97 -26 -121 0 -202 88 -202 221 0 104 37 173 112 211 60 31
142 26 192 -13z m534 7 c36 -27 61 -63 64 -93 3 -24 0 -25 -49 -28 -32 -2 -53
1 -53 7 0 23 -41 51 -73 51 -38 0 -71 -28 -62 -53 7 -16 23 -24 127 -57 81
-26 118 -63 118 -118 0 -100 -100 -158 -227 -132 -62 13 -126 67 -135 114 -5
25 -4 26 48 26 45 0 57 -4 82 -30 32 -32 54 -36 97 -20 21 8 26 16 23 38 -3
24 -10 29 -63 45 -138 42 -178 74 -178 146 0 49 24 85 76 111 54 27 164 24
205 -7z m415 11 c18 -9 40 -23 50 -32 16 -14 17 -13 17 11 0 26 2 27 60 27
l60 0 0 -220 0 -220 -60 0 c-60 0 -60 0 -60 30 l0 29 -25 -23 c-31 -29 -107
-49 -149 -41 -103 22 -168 108 -168 223 0 74 11 111 49 161 49 63 157 90 226
55z m-1803 -214 l0 -220 -60 0 -60 0 0 220 0 220 60 0 60 0 0 -220z"/>
<path d="M1788 673 c-37 -23 -62 -83 -55 -129 8 -49 31 -82 72 -101 48 -23
108 -5 136 40 29 47 23 138 -13 174 -33 33 -101 41 -140 16z"/>
<path d="M2764 671 c-89 -54 -60 -218 42 -237 71 -13 134 48 134 131 0 99 -94
156 -176 106z"/>
</g>
</svg>
